<?xml version="1.0" encoding="UTF-8"?>
<svg version="1.1" xmlns="http://www.w3.org/2000/svg" width="128" height="128">
<path d="M0 0 C1.03125 0.47308594 2.0625 0.94617188 3.125 1.43359375 C18.69882522 9.56523947 29.09848364 23.21116338 34.6796875 39.66015625 C36.3958997 45.66689896 36.53593444 51.53425168 36.5 57.75 C36.49427979 58.89799072 36.48855957 60.04598145 36.48266602 61.22875977 C36.29649312 70.07918109 35.19683941 77.08810121 31 85 C30.5153125 85.94230469 30.030625 86.88460937 29.53125 87.85546875 C19.595147 105.12188304 4.44406705 113.85197765 -14 120 C-27.33180749 121.16146095 -39.75468627 120.70669567 -52 115 C-53.54494141 114.29037109 -53.54494141 114.29037109 -55.12109375 113.56640625 C-69.13486212 106.25883653 -78.97915358 94.45115296 -85 80 C-85.28335205 79.34427002 -85.5667041 78.68854004 -85.85864258 78.01293945 C-88.44997851 71.30951613 -88.48108076 64.80701146 -88.4375 57.6875 C-88.45748047 56.54087891 -88.47746094 55.39425781 -88.49804688 54.21289062 C-88.48884353 37.95058493 -81.57120203 24.23398452 -70.375 12.6875 C-51.72349214 -5.60423861 -23.85939933 -11.00120889 0 0 Z " fill="#010100" transform="translate(90,7)"/>
<path d="M0 0 C1.83203125 0.734375 1.83203125 0.734375 2.83203125 1.734375 C2.90408636 3.42046466 2.91589193 5.10938159 2.89453125 6.796875 C2.88550781 7.71597656 2.87648438 8.63507812 2.8671875 9.58203125 C2.85558594 10.29230469 2.84398438 11.00257812 2.83203125 11.734375 C5.6163286 9.64615199 7.79638853 7.78189863 9.89453125 4.984375 C10.53390625 4.241875 11.17328125 3.499375 11.83203125 2.734375 C13.15203125 2.734375 14.47203125 2.734375 15.83203125 2.734375 C15.83203125 5.704375 15.83203125 8.674375 15.83203125 11.734375 C19.83311499 8.49579459 19.83311499 8.49579459 23.51953125 4.921875 C24.83203125 3.734375 24.83203125 3.734375 27.83203125 3.734375 C29.08203125 10.359375 29.08203125 10.359375 26.83203125 13.734375 C26.17203125 13.734375 25.51203125 13.734375 24.83203125 13.734375 C24.33703125 11.259375 24.33703125 11.259375 23.83203125 8.734375 C23.10886719 9.58322266 23.10886719 9.58322266 22.37109375 10.44921875 C21.73945312 11.18269531 21.1078125 11.91617188 20.45703125 12.671875 C19.83054688 13.40277344 19.2040625 14.13367188 18.55859375 14.88671875 C16.83203125 16.734375 16.83203125 16.734375 14.83203125 17.734375 C15.16203125 18.064375 15.49203125 18.394375 15.83203125 18.734375 C15.90408636 20.42046466 15.91589193 22.10938159 15.89453125 23.796875 C15.88550781 24.71597656 15.87648437 25.63507813 15.8671875 26.58203125 C15.85558594 27.29230469 15.84398437 28.00257812 15.83203125 28.734375 C14.84203125 28.734375 13.85203125 28.734375 12.83203125 28.734375 C12.83203125 25.764375 12.83203125 22.794375 12.83203125 19.734375 C11.84203125 19.734375 10.85203125 19.734375 9.83203125 19.734375 C9.83203125 22.704375 9.83203125 25.674375 9.83203125 28.734375 C8.84203125 28.734375 7.85203125 28.734375 6.83203125 28.734375 C6.83203125 25.764375 6.83203125 22.794375 6.83203125 19.734375 C5.84203125 19.734375 4.85203125 19.734375 3.83203125 19.734375 C3.83203125 22.704375 3.83203125 25.674375 3.83203125 28.734375 C3.13078125 28.651875 2.42953125 28.569375 1.70703125 28.484375 C-2.0923864 28.81475914 -4.10229378 30.55433947 -7.16796875 32.734375 C-7.82796875 32.734375 -8.48796875 32.734375 -9.16796875 32.734375 C-9.16796875 32.074375 -9.16796875 31.414375 -9.16796875 30.734375 C-10.03421875 30.651875 -10.90046875 30.569375 -11.79296875 30.484375 C-16.52008648 29.43390439 -19.76944645 27.1328973 -23.16796875 23.734375 C-23.29296875 20.109375 -23.29296875 20.109375 -23.16796875 16.734375 C-21.84796875 16.404375 -20.52796875 16.074375 -19.16796875 15.734375 C-19.16796875 16.394375 -19.16796875 17.054375 -19.16796875 17.734375 C-18.33265625 16.66509766 -18.33265625 16.66509766 -17.48046875 15.57421875 C-4.62035165 -0.56609714 -4.62035165 -0.56609714 0 0 Z " fill="#0E0C00" transform="translate(38.16796875,42.265625)"/>
<path d="M0 0 C0.33 0.66 0.66 1.32 1 2 C3.15889479 2.23427567 5.32977942 2.36098581 7.5 2.4375 C14.72653872 2.87168104 20.98154568 3.34964987 26.5625 8.25 C28.49801222 11.95271904 28.61354916 13.84150013 28 18 C26.54007085 21.45533404 24.84037098 24.7333415 23 28 C21.078125 27.62890625 21.078125 27.62890625 19 27 C17.75 24.9375 17.75 24.9375 17 23 C16.34 23 15.68 23 15 23 C14.690625 23.639375 14.38125 24.27875 14.0625 24.9375 C13 27 13 27 12 28 C9.5625 28.25 9.5625 28.25 7 28 C4.68638198 24.52957297 4.48979272 23.08165827 5 19 C7 17.125 7 17.125 9 16 C7.52853516 16.33837891 7.52853516 16.33837891 6.02734375 16.68359375 C1.35112877 17.35162446 -2.17043922 15.84662331 -6.4375 14.0625 C-7.16904297 13.77181641 -7.90058594 13.48113281 -8.65429688 13.18164062 C-10.44202989 12.46888433 -12.22188918 11.73643245 -14 11 C-14 10.34 -14 9.68 -14 9 C-11.69404616 7.37053772 -9.39803293 5.8564103 -7 4.375 C-6.33226563 3.95476563 -5.66453125 3.53453125 -4.9765625 3.1015625 C-3.32168546 2.06135408 -1.66133712 1.02985949 0 0 Z " fill="#BBD100" transform="translate(75,29)"/>
<path d="M0 0 C0.99 0.33 1.98 0.66 3 1 C2.01 2.485 2.01 2.485 1 4 C1.83402344 3.94199219 2.66804688 3.88398437 3.52734375 3.82421875 C11.44075999 3.50695693 16.54140428 4.32711421 23 9 C22.95875 8.21625 22.9175 7.4325 22.875 6.625 C23 4 23 4 25 2 C27.78515625 1.76953125 27.78515625 1.76953125 31.0625 1.8125 C32.68865234 1.82216797 32.68865234 1.82216797 34.34765625 1.83203125 C37 2 37 2 38 3 C38.07205511 4.68608966 38.08386068 6.37500659 38.0625 8.0625 C38.05347656 8.98160156 38.04445312 9.90070313 38.03515625 10.84765625 C38.02355469 11.55792969 38.01195312 12.26820312 38 13 C37.01 13 36.02 13 35 13 C35 10.03 35 7.06 35 4 C34.01 4 33.02 4 32 4 C32 6.97 32 9.94 32 13 C31.01 13 30.02 13 29 13 C29 10.03 29 7.06 29 4 C28.01 4 27.02 4 26 4 C26 6.97 26 9.94 26 13 C25.29875 12.9175 24.5975 12.835 23.875 12.75 C20.07558235 13.08038414 18.06567497 14.81996447 15 17 C14.34 17 13.68 17 13 17 C13 16.34 13 15.68 13 15 C12.13375 14.9175 11.2675 14.835 10.375 14.75 C5.64788227 13.69952939 2.3985223 11.3985223 -1 8 C-1.1875 4.4375 -1.1875 4.4375 -1 1 C-0.67 0.67 -0.34 0.34 0 0 Z " fill="#89BD00" transform="translate(16,58)"/>
<path d="M0 0 C1.87109375 0.6953125 1.87109375 0.6953125 2.87109375 1.6953125 C2.94314886 3.38140216 2.95495443 5.07031909 2.93359375 6.7578125 C2.92457031 7.67691406 2.91554688 8.59601562 2.90625 9.54296875 C2.89464844 10.25324219 2.88304688 10.96351562 2.87109375 11.6953125 C5.6553911 9.60708949 7.83545103 7.74283613 9.93359375 4.9453125 C10.57296875 4.2028125 11.21234375 3.4603125 11.87109375 2.6953125 C13.19109375 2.6953125 14.51109375 2.6953125 15.87109375 2.6953125 C15.87109375 5.6653125 15.87109375 8.6353125 15.87109375 11.6953125 C19.87217749 8.45673209 19.87217749 8.45673209 23.55859375 4.8828125 C24.87109375 3.6953125 24.87109375 3.6953125 27.87109375 3.6953125 C29.12109375 10.3203125 29.12109375 10.3203125 26.87109375 13.6953125 C26.21109375 13.6953125 25.55109375 13.6953125 24.87109375 13.6953125 C24.37609375 11.2203125 24.37609375 11.2203125 23.87109375 8.6953125 C21.89109375 11.0053125 19.91109375 13.3153125 17.87109375 15.6953125 C15.39609375 15.2003125 15.39609375 15.2003125 12.87109375 14.6953125 C12.37609375 11.2303125 12.37609375 11.2303125 11.87109375 7.6953125 C11.49597656 8.17742188 11.12085937 8.65953125 10.734375 9.15625 C7.76289809 12.82381596 5.60771561 15.44150083 0.87109375 16.6953125 C-0.79233462 15.03188413 -0.48938722 12.9127416 -0.69140625 10.6328125 C-0.81708984 9.25416016 -0.81708984 9.25416016 -0.9453125 7.84765625 C-1.00589844 7.13738281 -1.06648438 6.42710938 -1.12890625 5.6953125 C-4.56528361 6.27430825 -6.17468752 7.38062178 -8.56640625 9.8828125 C-9.16453125 10.50671875 -9.76265625 11.130625 -10.37890625 11.7734375 C-12.72214588 14.34681674 -14.94667315 16.98405319 -17.12890625 19.6953125 C-18.11890625 19.3653125 -19.10890625 19.0353125 -20.12890625 18.6953125 C-4.28652543 -0.61348437 -4.28652543 -0.61348437 0 0 Z " fill="#EB0000" transform="translate(38.12890625,42.3046875)"/>
<path d="M0 0 C5.61 0 11.22 0 17 0 C16.01 3.63 15.02 7.26 14 11 C11.4345406 8.4345406 11.45953913 6.52313332 11 3 C10.34 3 9.68 3 9 3 C9.33 4.65 9.66 6.3 10 8 C9.01 8.33 8.02 8.66 7 9 C5.8499169 10.96672915 5.8499169 10.96672915 5 13 C4 14 4 14 1.5625 14.25 C0.716875 14.1675 -0.12875 14.085 -1 14 C-3.31361802 10.52957297 -3.51020728 9.08165827 -3 5 C-1 3.125 -1 3.125 1 2 C0.67 1.34 0.34 0.68 0 0 Z " fill="#212615" transform="translate(83,43)"/>
<path d="M0 0 C0.33 0.66 0.66 1.32 1 2 C3.31 2 5.62 2 8 2 C8 2.33 8 2.66 8 3 C5.69 3.33 3.38 3.66 1 4 C-0.46726798 7.81489674 0.56663581 10.29011622 2 14 C-2.27327112 15.24213914 -4.71541119 14.69146302 -8.8125 13.0625 C-10.27623047 12.49208984 -10.27623047 12.49208984 -11.76953125 11.91015625 C-12.50558594 11.60980469 -13.24164063 11.30945312 -14 11 C-14 10.34 -14 9.68 -14 9 C-11.69404616 7.37053772 -9.39803293 5.8564103 -7 4.375 C-6.33226563 3.95476563 -5.66453125 3.53453125 -4.9765625 3.1015625 C-3.32168546 2.06135408 -1.66133712 1.02985949 0 0 Z " fill="#A4C500" transform="translate(75,29)"/>
<path d="M0 0 C1.093125 0.00257812 2.18625 0.00515625 3.3125 0.0078125 C4.405625 0.00523438 5.49875 0.00265625 6.625 0 C9.3125 0.1328125 9.3125 0.1328125 10.3125 1.1328125 C10.38455511 2.81890216 10.39636068 4.50781909 10.375 6.1953125 C10.36597656 7.11441406 10.35695313 8.03351563 10.34765625 8.98046875 C10.33605469 9.69074219 10.32445313 10.40101562 10.3125 11.1328125 C9.3225 11.1328125 8.3325 11.1328125 7.3125 11.1328125 C7.3125 8.1628125 7.3125 5.1928125 7.3125 2.1328125 C6.3225 2.1328125 5.3325 2.1328125 4.3125 2.1328125 C4.3125 5.1028125 4.3125 8.0728125 4.3125 11.1328125 C3.3225 11.1328125 2.3325 11.1328125 1.3125 11.1328125 C1.3125 8.1628125 1.3125 5.1928125 1.3125 2.1328125 C0.3225 2.1328125 -0.6675 2.1328125 -1.6875 2.1328125 C-1.6875 5.1028125 -1.6875 8.0728125 -1.6875 11.1328125 C-2.3475 11.1328125 -3.0075 11.1328125 -3.6875 11.1328125 C-3.6875 10.4728125 -3.6875 9.8128125 -3.6875 9.1328125 C-4.3475 8.8028125 -5.0075 8.4728125 -5.6875 8.1328125 C-5.0275 8.1328125 -4.3675 8.1328125 -3.6875 8.1328125 C-3.708125 6.9984375 -3.72875 5.8640625 -3.75 4.6953125 C-3.67080866 0.18140624 -3.67080866 0.18140624 0 0 Z " fill="#B8CD00" transform="translate(43.6875,59.8671875)"/>
<path d="M0 0 C3 0.25 3 0.25 5 2.25 C5.25 5.75 5.25 5.75 5 9.25 C4.34 9.91 3.68 10.57 3 11.25 C-0.5625 11 -0.5625 11 -4 10.25 C-5.38125018 7.48749964 -5.19079306 5.30268901 -5 2.25 C-3 0.25 -3 0.25 0 0 Z " fill="#ADC200" transform="translate(61,59.75)"/>
<path d="M0 0 C0.99 0 1.98 0 3 0 C3.33 2.64 3.66 5.28 4 8 C4.99 8.33 5.98 8.66 7 9 C7 6.03 7 3.06 7 0 C7.99 0 8.98 0 10 0 C10.05386629 2.12472576 10.09273071 4.24983652 10.125 6.375 C10.14820312 7.55835937 10.17140625 8.74171875 10.1953125 9.9609375 C10 13 10 13 8 15 C4.875 15.125 4.875 15.125 2 15 C1.67 14.34 1.34 13.68 1 13 C2.98 13 4.96 13 7 13 C7 12.34 7 11.68 7 11 C6.21625 11.04125 5.4325 11.0825 4.625 11.125 C2 11 2 11 0 9 C-0.1953125 6.8359375 -0.1953125 6.8359375 -0.125 4.375 C-0.10695313 3.55773438 -0.08890625 2.74046875 -0.0703125 1.8984375 C-0.04710938 1.27195313 -0.02390625 0.64546875 0 0 Z " fill="#B9CF00" transform="translate(92,60)"/>
<path d="M0 0 C3.625 0.375 3.625 0.375 7 1 C7.1953125 7.0546875 7.1953125 7.0546875 7 9 C5 11 5 11 2.5 11.3125 C1.2625 11.1578125 1.2625 11.1578125 0 11 C-2.30163882 7.54754176 -2.34490322 6.05261287 -2 2 C-1.34 1.34 -0.68 0.68 0 0 Z " fill="#CFCFCF" transform="translate(82,46)"/>
<path d="M0 0 C2.5 0.25 2.5 0.25 4.5 2.25 C4.75 5.75 4.75 5.75 4.5 9.25 C2.5 11.25 2.5 11.25 0 11.5 C-2.5 11.25 -2.5 11.25 -4.5 9.25 C-4.75 5.75 -4.75 5.75 -4.5 2.25 C-2.5 0.25 -2.5 0.25 0 0 Z " fill="#FCFCFC" transform="translate(73.5,45.75)"/>
<path d="M0 0 C3 0.25 3 0.25 5 2.25 C5.125 4.875 5.125 4.875 5 7.25 C3.02 7.58 1.04 7.91 -1 8.25 C0.65 8.58 2.3 8.91 4 9.25 C4 9.91 4 10.57 4 11.25 C0.625 11.375 0.625 11.375 -3 11.25 C-5 9.25 -5 9.25 -5.25 5.75 C-4.93427155 1.32980166 -4.46370491 0.37197541 0 0 Z " fill="#687500" transform="translate(85,59.75)"/>
<path d="M0 0 C3 0.25 3 0.25 5 2.25 C5.1953125 4.4140625 5.1953125 4.4140625 5.125 6.875 C5.10695313 7.69226563 5.08890625 8.50953125 5.0703125 9.3515625 C5.03550781 10.29128906 5.03550781 10.29128906 5 11.25 C4.01 11.25 3.02 11.25 2 11.25 C2 8.28 2 5.31 2 2.25 C0.68 2.25 -0.64 2.25 -2 2.25 C-2 5.22 -2 8.19 -2 11.25 C-2.99 11.25 -3.98 11.25 -5 11.25 C-5.05399736 9.79207116 -5.09279177 8.33357288 -5.125 6.875 C-5.15980469 5.65683594 -5.15980469 5.65683594 -5.1953125 4.4140625 C-4.86527933 0.75729499 -3.4960236 0.2913353 0 0 Z " fill="#B7CC00" transform="translate(73,59.75)"/>
<path d="M0 0 C4.55555556 0.55555556 4.55555556 0.55555556 6 2 C6.1875 4.4375 6.1875 4.4375 6 7 C5.34 7.66 4.68 8.32 4 9 C-0.55555556 8.44444444 -0.55555556 8.44444444 -2 7 C-2.1875 4.5625 -2.1875 4.5625 -2 2 C-1.34 1.34 -0.68 0.68 0 0 Z " fill="#7D7D7D" transform="translate(80,92)"/>
<path d="M0 0 C0.33 0 0.66 0 1 0 C1 1.98 1 3.96 1 6 C1.763125 6.103125 2.52625 6.20625 3.3125 6.3125 C6 7 6 7 7.375 8.46875 C9.41676953 10.39272514 10.9534266 10.67238472 13.6875 11.1875 C14.49574219 11.34605469 15.30398437 11.50460938 16.13671875 11.66796875 C17.05904297 11.83232422 17.05904297 11.83232422 18 12 C18 12.99 18 13.98 18 15 C16.68 15.33 15.36 15.66 14 16 C14 15.34 14 14.68 14 14 C13.13375 13.9175 12.2675 13.835 11.375 13.75 C6.64788227 12.69952939 3.3985223 10.3985223 0 7 C-0.125 3.375 -0.125 3.375 0 0 Z " fill="#558A00" transform="translate(15,59)"/>
<path d="M0 0 C2.625 0.375 2.625 0.375 5 1 C5.125 3.875 5.125 3.875 5 7 C4.34 7.66 3.68 8.32 3 9 C-0.53571429 8.46428571 -0.53571429 8.46428571 -2 7 C-2.1875 4.5625 -2.1875 4.5625 -2 2 C-1.34 1.34 -0.68 0.68 0 0 Z " fill="#AAAAAA" transform="translate(89,92)"/>
<path d="M0 0 C0.66 0 1.32 0 2 0 C2.66 1.98 3.32 3.96 4 6 C4.99 4.02 5.98 2.04 7 0 C7.99 0 8.98 0 10 0 C9.60446947 1.6510403 9.18286103 3.2958515 8.75 4.9375 C8.40195313 6.31228516 8.40195313 6.31228516 8.046875 7.71484375 C7 10 7 10 4.890625 10.81640625 C4.26671875 10.87699219 3.6428125 10.93757813 3 11 C2.49632243 9.54293274 1.99717444 8.08429904 1.5 6.625 C1.2215625 5.81289063 0.943125 5.00078125 0.65625 4.1640625 C0 2 0 2 0 0 Z " fill="#E5E7E2" transform="translate(92,46)"/>
<path d="M0 0 C0.99 0.33 1.98 0.66 3 1 C2.01 2.485 2.01 2.485 1 4 C2.33804687 3.94779297 2.33804687 3.94779297 3.703125 3.89453125 C4.87359375 3.86746094 6.0440625 3.84039062 7.25 3.8125 C8.99023438 3.76029297 8.99023438 3.76029297 10.765625 3.70703125 C14.22268407 4.02017066 15.51565563 4.65709108 18 7 C13.90274731 8.04167441 10.38504776 7.94409525 6.1875 7.5625 C5.02605469 7.46066406 3.86460938 7.35882813 2.66796875 7.25390625 C1.78753906 7.17011719 0.90710938 7.08632812 0 7 C0 4.69 0 2.38 0 0 Z " fill="#98C700" transform="translate(16,58)"/>
<path d="M0 0 C0.66 0 1.32 0 2 0 C2.05386629 2.12472576 2.09273071 4.24983652 2.125 6.375 C2.14820312 7.55835937 2.17140625 8.74171875 2.1953125 9.9609375 C2 13 2 13 0 15 C-3.125 15.125 -3.125 15.125 -6 15 C-6.33 14.34 -6.66 13.68 -7 13 C-5.02 13 -3.04 13 -1 13 C-0.67 8.71 -0.34 4.42 0 0 Z " fill="#AFC200" transform="translate(100,60)"/>
<path d="M0 0 C2.31 0 4.62 0 7 0 C5.125 4.875 5.125 4.875 4 6 C4.99 6.33 5.98 6.66 7 7 C7 7.66 7 8.32 7 9 C5.02 9 3.04 9 1 9 C1 6 1 6 3 3 C2.01 2.67 1.02 2.34 0 2 C0 1.34 0 0.68 0 0 Z " fill="#C8C8C8" transform="translate(95,92)"/>
<path d="M0 0 C1.25 6.625 1.25 6.625 -1 10 C-1.66 10 -2.32 10 -3 10 C-3 7.36 -3 4.72 -3 2 C-3.66 1.67 -4.32 1.34 -5 1 C-3 0 -3 0 0 0 Z " fill="#D60000" transform="translate(66,46)"/>
<path d="M0 0 C0.66 0 1.32 0 2 0 C2 3.96 2 7.92 2 12 C1.01 11.67 0.02 11.34 -1 11 C-1.02688151 9.35425434 -1.04634123 7.70838587 -1.0625 6.0625 C-1.07410156 5.14597656 -1.08570312 4.22945313 -1.09765625 3.28515625 C-1 1 -1 1 0 0 Z " fill="#A4A4A4" transform="translate(75,89)"/>
<path d="M0 0 C1.32 0.33 2.64 0.66 4 1 C4 2.32 4 3.64 4 5 C-0.455 5.495 -0.455 5.495 -5 6 C-3.35 4.02 -1.7 2.04 0 0 Z " fill="#030100" transform="translate(34,47)"/>
<path d="M0 0 C0.99 0 1.98 0 3 0 C3 1.65 3 3.3 3 5 C2.34 5 1.68 5 1 5 C1 7.31 1 9.62 1 12 C0.34 12 -0.32 12 -1 12 C-1.02687279 10.18757948 -1.04633715 8.37504767 -1.0625 6.5625 C-1.07410156 5.55316406 -1.08570312 4.54382813 -1.09765625 3.50390625 C-1 1 -1 1 0 0 Z " fill="#D6D6D6" transform="translate(70,89)"/>
<path d="M0 0 C1.99954746 -0.04254356 4.00041636 -0.04080783 6 0 C7 1 7 1 7.0625 3.5625 C7.041875 4.366875 7.02125 5.17125 7 6 C5.02 6 3.04 6 1 6 C2.32 5.67 3.64 5.34 5 5 C4.67 4.34 4.34 3.68 4 3 C3.01 3 2.02 3 1 3 C0.34 3.66 -0.32 4.32 -1 5 C-0.67 3.35 -0.34 1.7 0 0 Z " fill="#CDE400" transform="translate(82,60)"/>
<path d="M0 0 C2.875 -0.125 2.875 -0.125 6 0 C8 2 8 2 8.125 5.625 C8.08375 6.73875 8.0425 7.8525 8 9 C7.01 9.495 7.01 9.495 6 10 C5.67 7.69 5.34 5.38 5 3 C3.35 2.67 1.7 2.34 0 2 C0 1.34 0 0.68 0 0 Z " fill="#C7DF00" transform="translate(58,60)"/>
<path d="M0 0 C1.67542976 0.28604898 3.34385343 0.61781233 5 1 C5 3.64 5 6.28 5 9 C3.35 9.33 1.7 9.66 0 10 C0.66 9.34 1.32 8.68 2 8 C2.41666667 5.5 2.41666667 5.5 2 3 C1.01 2.34 0.02 1.68 -1 1 C-0.67 0.67 -0.34 0.34 0 0 Z " fill="#F3F3F3" transform="translate(84,46)"/>
<path d="M0 0 C0.99 0 1.98 0 3 0 C3 2.31 3 4.62 3 7 C1.68 6.67 0.36 6.34 -1 6 C-1.042721 4.33388095 -1.04063832 2.66617115 -1 1 C-0.67 0.67 -0.34 0.34 0 0 Z " fill="#202020" transform="translate(72,48)"/>
<path d="M0 0 C0.99 0 1.98 0 3 0 C3 1.98 3 3.96 3 6 C1.68 6 0.36 6 -1 6 C-1.042721 4.33388095 -1.04063832 2.66617115 -1 1 C-0.67 0.67 -0.34 0.34 0 0 Z " fill="#111300" transform="translate(60,62)"/>
<path d="M0 0 C1.32 0.33 2.64 0.66 4 1 C4 2.65 4 4.3 4 6 C2.68 6 1.36 6 0 6 C0 4.02 0 2.04 0 0 Z " fill="#181F14" transform="translate(83,48)"/>
<path d="M0 0 C2 0.25 2 0.25 4 1 C5.31223496 4.93670488 4.24296256 7.12488144 3 11 C2.67 11 2.34 11 2 11 C1.87625 10.21625 1.7525 9.4325 1.625 8.625 C1.20882007 5.85942178 1.20882007 5.85942178 -1 4 C0.32 4 1.64 4 3 4 C3 3.34 3 2.68 3 2 C1.68 1.67 0.36 1.34 -1 1 C-0.67 0.67 -0.34 0.34 0 0 Z " fill="#D20000" transform="translate(36,42)"/>
<path d="M0 0 C0 -0.33 0 -0.66 0 -1 C2.31 -1 4.62 -1 7 -1 C4.8125 1.0625 4.8125 1.0625 2 3 C-1.42673626 2.83284213 -4.02350522 1.65360821 -7 0 C-4.3333581 -1.33332095 -2.83319697 -0.67102033 0 0 Z " fill="#0E0F05" transform="translate(79,45)"/>
<path d="M0 0 C2.625 0.375 2.625 0.375 5 1 C4.34 1.66 3.68 2.32 3 3 C2.34 3 1.68 3 1 3 C0.67 4.65 0.34 6.3 0 8 C-0.66 7.67 -1.32 7.34 -2 7 C-2.125 4.625 -2.125 4.625 -2 2 C-1.34 1.34 -0.68 0.68 0 0 Z " fill="#CECECE" transform="translate(80,92)"/>
<path d="M0 0 C0.125 3.375 0.125 3.375 0 7 C-2 9 -2 9 -4.625 9.125 C-5.40875 9.08375 -6.1925 9.0425 -7 9 C-5.68 8.34 -4.36 7.68 -3 7 C-3 5.02 -3 3.04 -3 1 C-1 0 -1 0 0 0 Z " fill="#C8C8C8" transform="translate(78,48)"/>
<path d="M0 0 C0.66 0 1.32 0 2 0 C2 3.3 2 6.6 2 10 C1.34 10 0.68 10 0 10 C0 9.34 0 8.68 0 8 C-0.66 7.67 -1.32 7.34 -2 7 C-1.34 7 -0.68 7 0 7 C0 4.69 0 2.38 0 0 Z " fill="#CBE600" transform="translate(40,61)"/>
<path d="M0 0 C0.33 0.66 0.66 1.32 1 2 C3.32156597 2.40729228 5.6568787 2.74438677 8 3 C8 3.66 8 4.32 8 5 C5.69 5 3.38 5 1 5 C0.67 3.35 0.34 1.7 0 0 Z " fill="#C3D900" transform="translate(81,66)"/>
<path d="M0 0 C1.66611905 -0.042721 3.33382885 -0.04063832 5 0 C6 1 6 1 6.0625 4.0625 C6.041875 5.031875 6.02125 6.00125 6 7 C5.34 5.68 4.68 4.36 4 3 C2.68 3 1.36 3 0 3 C0 2.01 0 1.02 0 0 Z " fill="#EFEFEF" transform="translate(71,46)"/>
<path d="M0 0 C1 2 1 2 0.0625 5.125 C-0.288125 6.07375 -0.63875 7.0225 -1 8 C-1.66 7.34 -2.32 6.68 -3 6 C-2.75 3.4375 -2.75 3.4375 -2 1 C-1.34 0.67 -0.68 0.34 0 0 Z " fill="#5B831C" transform="translate(98,46)"/>
</svg>
