<?xml version="1.0" encoding="UTF-8"?>
<svg version="1.1" xmlns="http://www.w3.org/2000/svg" width="128" height="128">
<path d="M0 0 C1.03125 0.47308594 2.0625 0.94617188 3.125 1.43359375 C18.69501684 9.56325098 29.06929479 23.19480189 34.6796875 39.625 C36.44870362 45.81538257 36.53536519 51.90916163 36.5 58.3125 C36.49427979 59.51003906 36.48855957 60.70757812 36.48266602 61.94140625 C36.30593223 70.66265349 35.44930688 77.36126651 31 85 C30.5153125 85.91910156 30.030625 86.83820313 29.53125 87.78515625 C19.59148649 105.10665589 4.50007272 113.83330909 -14 120 C-27.33180749 121.16146095 -39.75468627 120.70669567 -52 115 C-53.54494141 114.29037109 -53.54494141 114.29037109 -55.12109375 113.56640625 C-69.13486212 106.25883653 -78.97915358 94.45115296 -85 80 C-85.28335205 79.34427002 -85.5667041 78.68854004 -85.85864258 78.01293945 C-88.44997851 71.30951613 -88.48108076 64.80701146 -88.4375 57.6875 C-88.45748047 56.54087891 -88.47746094 55.39425781 -88.49804688 54.21289062 C-88.48884353 37.95058493 -81.57120203 24.23398452 -70.375 12.6875 C-51.72349214 -5.60423861 -23.85939933 -11.00120889 0 0 Z " fill="#FDCA00" transform="translate(90,7)"/>
<path d="M0 0 C3.73572353 3.56196895 5.46707958 5.83062528 6.125 11 C5.41660755 16.76833854 2.6068346 20.01426181 -1.75 23.625 C-7.16919038 27.43334847 -13.03336717 29.56732389 -19.3125 31.5625 C-20.51519531 31.95824219 -21.71789062 32.35398438 -22.95703125 32.76171875 C-33.30203865 35.77236797 -43.74466384 35.96087366 -54.4375 36 C-55.15167084 36.0061734 -55.86584167 36.0123468 -56.60165405 36.01870728 C-74.94552331 36.12053434 -94.66139804 33.58716252 -109.3125 21.5625 C-112.35990051 18.21035943 -114.11992159 15.93806009 -114.75 11.4375 C-114.14635872 6.09096299 -112.18503929 3.23318879 -108.3125 -0.4375 C-80.68974194 -19.51035675 -27.00088976 -21.12539052 0 0 Z " fill="#046793" transform="translate(118.3125,52.4375)"/>
<path d="M0 0 C2.57161458 0.03255208 5.14322917 0.06510417 7.71484375 0.09765625 C8.04484375 3.39765625 8.37484375 6.69765625 8.71484375 10.09765625 C10.36484375 6.79765625 12.01484375 3.49765625 13.71484375 0.09765625 C17.01484375 0.09765625 20.31484375 0.09765625 23.71484375 0.09765625 C22.32830544 8.64797584 20.20856889 16.80541489 17.71484375 25.09765625 C15.73484375 25.09765625 13.75484375 25.09765625 11.71484375 25.09765625 C11.78703125 24.45957031 11.85921875 23.82148437 11.93359375 23.1640625 C12.0728125 21.92462891 12.0728125 21.92462891 12.21484375 20.66015625 C12.3540625 19.42458984 12.3540625 19.42458984 12.49609375 18.1640625 C12.65940654 16.63370635 12.65940654 16.63370635 12.71484375 15.09765625 C11.06484375 18.39765625 9.41484375 21.69765625 7.71484375 25.09765625 C5.73484375 25.09765625 3.75484375 25.09765625 1.71484375 25.09765625 C1.38484375 22.45765625 1.05484375 19.81765625 0.71484375 17.09765625 C-0.27515625 19.73765625 -1.26515625 22.37765625 -2.28515625 25.09765625 C-4.26515625 25.09765625 -6.24515625 25.09765625 -8.28515625 25.09765625 C-4.03940933 0.17262433 -4.03940933 0.17262433 0 0 Z " fill="#EFF6F8" transform="translate(34.28515625,50.90234375)"/>
<path d="M0 0 C2.64 0 5.28 0 8 0 C9.29243536 4.1196377 10.26252625 7.66831683 10 12 C10.66 12 11.32 12 12 12 C11.95875 11.13375 11.9175 10.2675 11.875 9.375 C12.00457721 5.87641532 12.76019656 3.25448403 14 0 C16.31 0 18.62 0 21 0 C20.73445313 1.05058594 20.46890625 2.10117187 20.1953125 3.18359375 C18.36816609 10.43691597 16.56747641 17.68511009 15 25 C12.69 25 10.38 25 8 25 C7.79503906 24.28972656 7.59007813 23.57945313 7.37890625 22.84765625 C7.10949219 21.92855469 6.84007813 21.00945312 6.5625 20.0625 C6.29566406 19.14597656 6.02882813 18.22945312 5.75390625 17.28515625 C5.20973949 15.0597507 5.20973949 15.0597507 4 14 C2.515 19.445 2.515 19.445 1 25 C-0.98 25 -2.96 25 -5 25 C-4.38580826 16.40131562 -2.19092979 8.30515248 0 0 Z " fill="#F3F8FA" transform="translate(82,51)"/>
<path d="M0 0 C6.6 0 13.2 0 20 0 C19.67 1.98 19.34 3.96 19 6 C17.02 6.33 15.04 6.66 13 7 C11.68 11.29 10.36 15.58 9 20 C6.69 20 4.38 20 2 20 C2.30975468 18.22868439 2.62290425 16.45796222 2.9375 14.6875 C3.11152344 13.70136719 3.28554688 12.71523438 3.46484375 11.69921875 C4 9 4 9 5 6 C3.02 6 1.04 6 -1 6 C-0.67 4.02 -0.34 2.04 0 0 Z " fill="#F4CB01" transform="translate(60,51)"/>
<path d="M0 0 C2.31 0 4.62 0 7 0 C7 0.99 7 1.98 7 3 C4.69 3 2.38 3 0 3 C0 2.01 0 1.02 0 0 Z " fill="#FA0104" transform="translate(61,73)"/>
<path d="M0 0 C1.42944945 2.35438733 2.08661261 3.48032433 1.625 6.25 C1.41875 6.8275 1.2125 7.405 1 8 C-1.64 7.67 -4.28 7.34 -7 7 C-7 6.67 -7 6.34 -7 6 C-5.02 6 -3.04 6 -1 6 C-0.67 4.02 -0.34 2.04 0 0 Z " fill="#2D7678" transform="translate(80,51)"/>
</svg>
