<?xml version="1.0" encoding="UTF-8"?>
<svg version="1.1" xmlns="http://www.w3.org/2000/svg" width="128" height="128">
<path d="M0 0 C1.03125 0.47308594 2.0625 0.94617188 3.125 1.43359375 C18.69501684 9.56325098 29.06929479 23.19480189 34.6796875 39.625 C36.44870362 45.81538257 36.53536519 51.90916163 36.5 58.3125 C36.49427979 59.51003906 36.48855957 60.70757812 36.48266602 61.94140625 C36.30593223 70.66265349 35.44930688 77.36126651 31 85 C30.5153125 85.91910156 30.030625 86.83820313 29.53125 87.78515625 C19.59148649 105.10665589 4.50007272 113.83330909 -14 120 C-27.33180749 121.16146095 -39.75468627 120.70669567 -52 115 C-53.54494141 114.29037109 -53.54494141 114.29037109 -55.12109375 113.56640625 C-69.13486212 106.25883653 -78.97915358 94.45115296 -85 80 C-85.28335205 79.34427002 -85.5667041 78.68854004 -85.85864258 78.01293945 C-88.44997851 71.30951613 -88.48108076 64.80701146 -88.4375 57.6875 C-88.45748047 56.54087891 -88.47746094 55.39425781 -88.49804688 54.21289062 C-88.48884353 37.95058493 -81.57120203 24.23398452 -70.375 12.6875 C-51.72349214 -5.60423861 -23.85939933 -11.00120889 0 0 Z " fill="#050505" transform="translate(90,7)"/>
<path d="M0 0 C1.00897339 0.00326294 1.00897339 0.00326294 2.03833008 0.0065918 C4.08859551 0.00974867 6.13741342 -0.01369197 8.1875 -0.0390625 C9.47720703 -0.03970703 10.76691406 -0.04035156 12.09570312 -0.04101562 C13.28220459 -0.04399658 14.46870605 -0.04697754 15.69116211 -0.05004883 C18.66210938 0.32226562 18.66210938 0.32226562 20.54760742 1.45043945 C22.1866115 4.20317642 22.05107075 6.44717922 22.06054688 9.63476562 C22.06634766 11.49488281 22.06634766 11.49488281 22.07226562 13.39257812 C22.06066406 14.689375 22.0490625 15.98617187 22.03710938 17.32226562 C22.04871094 18.6190625 22.0603125 19.91585937 22.07226562 21.25195312 C22.06839844 22.49203125 22.06453125 23.73210938 22.06054688 25.00976562 C22.05716309 26.14800781 22.0537793 27.28625 22.05029297 28.45898438 C21.66210938 31.32226563 21.66210938 31.32226563 20.29736328 33.19726562 C17.988 34.78603033 16.39984675 34.6732576 13.66210938 34.32226562 C11.66210938 32.32226562 11.66210938 32.32226562 11.46679688 28.84570312 C11.48009444 27.46275595 11.50394706 26.07987909 11.53710938 24.69726562 C11.54613281 23.99085937 11.55515625 23.28445312 11.56445312 22.55664062 C11.58803334 20.81170465 11.62390477 19.06694267 11.66210938 17.32226562 C11.00210938 17.32226562 10.34210937 17.32226562 9.66210938 17.32226562 C9.40397461 17.90274658 9.14583984 18.48322754 8.87988281 19.08129883 C6.65526007 23.17508635 3.17136688 26.22422378 -0.08789062 29.50976562 C-0.79171875 30.24646484 -1.49554688 30.98316406 -2.22070312 31.7421875 C-5.33165764 34.88494546 -7.47852366 37.0401002 -11.72851562 38.43554688 C-14.33789062 38.32226562 -14.33789062 38.32226562 -16.33789062 36.32226562 C-16.83739014 32.6501835 -16.78244258 30.9404318 -14.59375 27.89697266 C-13.79775391 27.13239746 -13.00175781 26.36782227 -12.18164062 25.58007812 C-11.32441406 24.7421875 -10.4671875 23.90429688 -9.58398438 23.04101562 C-8.67777344 22.18507813 -7.7715625 21.32914063 -6.83789062 20.44726562 C-5.93167969 19.568125 -5.02546875 18.68898438 -4.09179688 17.78320312 C-1.85336975 15.61546318 0.39783027 13.46293487 2.66210938 11.32226562 C1.83066406 11.27328125 0.99921875 11.22429688 0.14257812 11.17382812 C-0.94410156 11.0990625 -2.03078125 11.02429687 -3.15039062 10.94726562 C-4.22933594 10.87765625 -5.30828125 10.80804688 -6.41992188 10.73632812 C-9.33789062 10.32226562 -9.33789062 10.32226562 -12.33789062 8.32226562 C-12.65039062 5.32226562 -12.65039062 5.32226562 -12.33789062 2.32226562 C-8.97932096 -1.03630404 -4.56324636 0.02511041 0 0 Z " fill="#F6F6F6" transform="translate(40.337890625,19.677734375)"/>
<path d="M0 0 C2.32104492 0.3984375 2.32104492 0.3984375 4.32104492 2.3984375 C4.82054444 6.07051963 4.76559688 7.78027133 2.5769043 10.82373047 C1.38291016 11.97059326 1.38291016 11.97059326 0.16479492 13.140625 C-0.69243164 13.97851562 -1.5496582 14.81640625 -2.43286133 15.6796875 C-3.33907227 16.535625 -4.2452832 17.3915625 -5.17895508 18.2734375 C-6.08516602 19.15257813 -6.99137695 20.03171875 -7.92504883 20.9375 C-10.16347595 23.10523995 -12.41467597 25.25776825 -14.67895508 27.3984375 C-13.7637207 27.44742188 -12.84848633 27.49640625 -11.90551758 27.546875 C-10.12274414 27.65902344 -10.12274414 27.65902344 -8.30395508 27.7734375 C-6.52891602 27.87785156 -6.52891602 27.87785156 -4.71801758 27.984375 C-1.67895508 28.3984375 -1.67895508 28.3984375 0.32104492 30.3984375 C0.63354492 33.3984375 0.63354492 33.3984375 0.32104492 36.3984375 C-3.23496698 38.7691121 -4.80981689 38.65575179 -9.02661133 38.6640625 C-10.27120117 38.66664062 -11.51579102 38.66921875 -12.7980957 38.671875 C-14.0994043 38.66414063 -15.40071289 38.65640625 -16.74145508 38.6484375 C-18.04663086 38.65617187 -19.35180664 38.66390625 -20.6965332 38.671875 C-21.93983398 38.66929688 -23.18313477 38.66671875 -24.46411133 38.6640625 C-26.17932983 38.66067871 -26.17932983 38.66067871 -27.92919922 38.65722656 C-30.67895508 38.3984375 -30.67895508 38.3984375 -32.67895508 36.3984375 C-32.93774414 33.44921875 -32.93774414 33.44921875 -32.94458008 29.7109375 C-32.94649353 29.05262939 -32.94840698 28.39432129 -32.95037842 27.71606445 C-32.95173958 26.3240521 -32.94804791 24.93202703 -32.93969727 23.54003906 C-32.92899608 21.40661161 -32.93959414 19.27402619 -32.95239258 17.140625 C-32.95107097 15.78906064 -32.94850855 14.4374968 -32.94458008 13.0859375 C-32.94232422 11.85230469 -32.94006836 10.61867188 -32.93774414 9.34765625 C-32.67895508 6.3984375 -32.67895508 6.3984375 -30.67895508 4.3984375 C-28.17895508 4.1484375 -28.17895508 4.1484375 -25.67895508 4.3984375 C-22.82102192 7.25637066 -23.27095567 9.54509334 -23.05395508 13.5234375 C-22.97918945 14.80476563 -22.90442383 16.08609375 -22.82739258 17.40625 C-22.7784082 18.39367187 -22.72942383 19.38109375 -22.67895508 20.3984375 C-22.09927979 19.79257812 -21.51960449 19.18671875 -20.92236328 18.5625 C-18.76127036 16.31608657 -16.58904502 14.08122705 -14.40869141 11.85351562 C-13.00617188 10.41354726 -11.61688714 8.96072686 -10.2277832 7.5078125 C-9.34155273 6.60546875 -8.45532227 5.703125 -7.54223633 4.7734375 C-6.73052979 3.93554688 -5.91882324 3.09765625 -5.08251953 2.234375 C-2.67895508 0.3984375 -2.67895508 0.3984375 0 0 Z " fill="#F87200" transform="translate(99.678955078125,15.6015625)"/>
<path d="M0 0 C3.29420787 2.88243189 4.76884408 4.74148444 5.5625 9.0625 C4.87020639 12.67781108 3.54408967 14.38108416 1 17 C-2.09173752 18.54586876 -4.59429552 18.29359521 -8 18 C-10.4375 16.625 -10.4375 16.625 -12 14 C-12.74135651 9.3990039 -12.84195873 5.47342778 -10.5 1.375 C-6.98124963 -0.5603127 -3.85009334 -1.00636103 0 0 Z " fill="#EEEEEE" transform="translate(36,68)"/>
<path d="M0 0 C1.98 0 3.96 0 6 0 C9 6.5 9 6.5 9 11 C9.66 11 10.32 11 11 11 C11.12375 9.9275 11.2475 8.855 11.375 7.75 C11.89643936 4.62136385 12.40088254 2.66519576 14 0 C15.65 0 17.3 0 19 0 C19 5.94 19 11.88 19 18 C18.01 18 17.02 18 16 18 C15.67 14.7 15.34 11.4 15 8 C13.68 11.3 12.36 14.6 11 18 C10.01 18 9.02 18 8 18 C7.01 15.03 6.02 12.06 5 9 C4.67 11.97 4.34 14.94 4 18 C2.68 18 1.36 18 0 18 C0 12.06 0 6.12 0 0 Z " fill="#E1E1E1" transform="translate(23,91)"/>
<path d="M0 0 C3.66666667 0 7.33333333 0 11 0 C11.928125 -0.03480469 11.928125 -0.03480469 12.875 -0.0703125 C13.57625 -0.08835937 14.2775 -0.10640625 15 -0.125 C15.70125 -0.14820312 16.4025 -0.17140625 17.125 -0.1953125 C19 0 19 0 21 2 C21.1953125 4.6015625 21.1953125 4.6015625 21.125 7.625 C21.10695313 8.62789062 21.08890625 9.63078125 21.0703125 10.6640625 C21.04710938 11.43492188 21.02390625 12.20578125 21 13 C19.18757948 13.02687279 17.37504767 13.04633715 15.5625 13.0625 C14.55316406 13.07410156 13.54382813 13.08570312 12.50390625 13.09765625 C10 13 10 13 9 12 C8.95936168 10.33382885 8.957279 8.66611905 9 7 C12.08809695 5.23537317 13.23312136 5 17 5 C17 4.01 17 3.02 17 2 C15.68 2 14.36 2 13 2 C13 2.66 13 3.32 13 4 C10.36 4 7.72 4 5 4 C4.67 6.97 4.34 9.94 4 13 C2.68 13 1.36 13 0 13 C0 8.71 0 4.42 0 0 Z " fill="#E6E6E6" transform="translate(42,73)"/>
<path d="M0 0 C2.3828125 -0.29296875 2.3828125 -0.29296875 5.125 -0.1875 C6.03507812 -0.16042969 6.94515625 -0.13335937 7.8828125 -0.10546875 C8.58148438 -0.07066406 9.28015625 -0.03585938 10 0 C10.05383848 2.45862401 10.09359038 4.9160755 10.125 7.375 C10.14175781 8.07367188 10.15851563 8.77234375 10.17578125 9.4921875 C10.19344267 11.32897486 10.10303261 13.16601963 10 15 C8 17 8 17 6.0546875 17.1953125 C4.03645833 17.13020833 2.01822917 17.06510417 0 17 C-0.66 15.68 -1.32 14.36 -2 13 C-0.68 13 0.64 13 2 13 C2 13.66 2 14.32 2 15 C3.32 14.67 4.64 14.34 6 14 C6 13.34 6 12.68 6 12 C4.576875 12.0928125 4.576875 12.0928125 3.125 12.1875 C2.09375 12.125625 1.0625 12.06375 0 12 C-2.31332486 8.53001271 -2.33957563 7.07490752 -2 3 C-1.34 2.01 -0.68 1.02 0 0 Z " fill="#E5E5E5" transform="translate(80,73)"/>
<path d="M0 0 C1.9375 1.125 1.9375 1.125 3 3 C3.54068562 6.63031776 3.46379841 8.32214079 1.375 11.375 C-1.67785921 13.46379841 -3.36968224 13.54068562 -7 13 C-8.875 11.9375 -8.875 11.9375 -10 10 C-10.36528977 6.5906288 -10.6140629 4.11976176 -8.9375 1.0625 C-5.88023824 -0.6140629 -3.4093712 -0.36528977 0 0 Z " fill="#E2E2E2" transform="translate(54,96)"/>
<path d="M0 0 C2 2 2 2 2.125 4.625 C2.08375 5.40875 2.0425 6.1925 2 7 C-0.97 7 -3.94 7 -7 7 C-6.67 7.66 -6.34 8.32 -6 9 C-3.36 9 -0.72 9 2 9 C1 12 1 12 -1 13 C-3.9375 13.3125 -3.9375 13.3125 -7 13 C-9.59814888 10.74827097 -9.95716454 9.34982295 -10.375 5.9375 C-10 3 -10 3 -8.9375 1.125 C-5.93267901 -0.61973477 -3.39189869 -0.30835443 0 0 Z " fill="#C8C8C8" transform="translate(102,73)"/>
<path d="M0 0 C1.875 1.25 1.875 1.25 3 3 C3 4.32 3 5.64 3 7 C0.03 7 -2.94 7 -6 7 C-5.67 7.66 -5.34 8.32 -5 9 C-2.36 9 0.28 9 3 9 C1.875 11 1.875 11 0 13 C-3.1506804 13.45947423 -5.07837528 13.52225401 -7.875 11.9375 C-9.64273274 8.8930714 -9.36823916 6.4368988 -9 3 C-6.84332735 -0.71426957 -4.0099826 -0.50124783 0 0 Z " fill="#CECECE" transform="translate(81,96)"/>
<path d="M0 0 C1.32 0 2.64 0 4 0 C4.66 1.65 5.32 3.3 6 5 C7.93798263 2.22739701 7.93798263 2.22739701 9 0 C10.32 0 11.64 0 13 0 C8.3 14.7 8.3 14.7 6 17 C4.33382885 17.04063832 2.66611905 17.042721 1 17 C1 16.01 1 15.02 1 14 C1.99 14 2.98 14 4 14 C3.79503906 13.32453125 3.59007813 12.6490625 3.37890625 11.953125 C3.10949219 11.06109375 2.84007813 10.1690625 2.5625 9.25 C2.29566406 8.36828125 2.02882813 7.4865625 1.75390625 6.578125 C1.11531506 4.39434165 0.53224167 2.21164502 0 0 Z " fill="#E5E5E5" transform="translate(84,96)"/>
<path d="M0 0 C8.49609375 -0.09765625 8.49609375 -0.09765625 11 0 C12 1 12 1 12.09765625 3.72265625 C12.08605469 4.82480469 12.07445313 5.92695312 12.0625 7.0625 C12.05347656 8.16722656 12.04445313 9.27195312 12.03515625 10.41015625 C12.02355469 11.26480469 12.01195313 12.11945313 12 13 C11.01 13 10.02 13 9 13 C8.67 10.03 8.34 7.06 8 4 C6.68 3.67 5.36 3.34 4 3 C4 6.3 4 9.6 4 13 C2.68 13 1.36 13 0 13 C0 8.71 0 4.42 0 0 Z " fill="#E9E9E9" transform="translate(58,96)"/>
<path d="M0 0 C2.4375 0.8125 2.4375 0.8125 4.4375 2.8125 C4.77411952 5.9767235 4.93693411 7.99763382 3.25 10.75 C1.4375 11.8125 1.4375 11.8125 -1.125 11.6875 C-3.5625 10.8125 -3.5625 10.8125 -5.5625 7.8125 C-5.92395422 4.92086622 -5.94690503 3.4194553 -4.375 0.9375 C-2.5625 -0.1875 -2.5625 -0.1875 0 0 Z " fill="#111111" transform="translate(32.5625,71.1875)"/>
<path d="M0 0 C7.71484375 -0.09765625 7.71484375 -0.09765625 10 0 C11 1 11 1 11.09765625 3.50390625 C11.08605469 4.51324219 11.07445313 5.52257812 11.0625 6.5625 C11.05347656 7.57441406 11.04445313 8.58632812 11.03515625 9.62890625 C11.02355469 10.41136719 11.01195313 11.19382812 11 12 C10.01 12 9.02 12 8 12 C8 9.03 8 6.06 8 3 C6.35 3 4.7 3 3 3 C3 5.97 3 8.94 3 12 C2.01 12 1.02 12 0 12 C0 8.04 0 4.08 0 0 Z " fill="#ECECEC" transform="translate(65,73)"/>
<path d="M0 0 C1.65 0 3.3 0 5 0 C5 5.94 5 11.88 5 18 C4.01 18 3.02 18 2 18 C2 14.04 2 10.08 2 6 C0.68 6.33 -0.64 6.66 -2 7 C-1.125 1.125 -1.125 1.125 0 0 Z " fill="#F2F2F2" transform="translate(37,91)"/>
<path d="M0 0 C0.66 0 1.32 0 2 0 C2.05383848 2.45862401 2.09359038 4.9160755 2.125 7.375 C2.14175781 8.07367188 2.15851563 8.77234375 2.17578125 9.4921875 C2.19344267 11.32897486 2.10303261 13.16601963 2 15 C0 17 0 17 -1.9453125 17.1953125 C-3.96354167 17.13020833 -5.98177083 17.06510417 -8 17 C-8.66 15.68 -9.32 14.36 -10 13 C-8.68 13 -7.36 13 -6 13 C-6 13.66 -6 14.32 -6 15 C-3.50447516 14.21869929 -3.50447516 14.21869929 -1 13 C-0.67 12.01 -0.34 11.02 0 10 C-0.66 10 -1.32 10 -2 10 C-2 7.36 -2 4.72 -2 2 C-1.34 2 -0.68 2 0 2 C0 1.34 0 0.68 0 0 Z " fill="#F6F6F6" transform="translate(88,73)"/>
<path d="M0 0 C0.99 0 1.98 0 3 0 C3 0.66 3 1.32 3 2 C3.66 2.33 4.32 2.66 5 3 C4.67 6.3 4.34 9.6 4 13 C2.68 13 1.36 13 0 13 C0 8.71 0 4.42 0 0 Z " fill="#D8D8D8" transform="translate(58,96)"/>
<path d="M0 0 C0.99 0 1.98 0 3 0 C4.32229189 2.64458379 4.09677194 4.67761301 4.0625 7.625 C4.05347656 8.62789062 4.04445313 9.63078125 4.03515625 10.6640625 C4.02355469 11.43492188 4.01195312 12.20578125 4 13 C2.68 13 1.36 13 0 13 C0 8.71 0 4.42 0 0 Z " fill="#D9D9D9" transform="translate(42,73)"/>
<path d="M0 0 C0.66 0.33 1.32 0.66 2 1 C1.773125 2.093125 1.54625 3.18625 1.3125 4.3125 C0.5841746 7.90092967 0.5841746 7.90092967 2.4375 9.8125 C2.953125 10.204375 3.46875 10.59625 4 11 C4 11.66 4 12.32 4 13 C-0.75 12.25 -0.75 12.25 -3 10 C-3.56949153 3.73559322 -3.56949153 3.73559322 -1.5 1.0625 C-1.005 0.711875 -0.51 0.36125 0 0 Z " fill="#F0F0F0" transform="translate(47,96)"/>
<path d="M0 0 C2.125 0.375 2.125 0.375 4 1 C4 2.98 4 4.96 4 7 C2.35 7.33 0.7 7.66 -1 8 C-1.625 5.125 -1.625 5.125 -2 2 C-1.34 1.34 -0.68 0.68 0 0 Z " fill="#161616" transform="translate(49,98)"/>
<path d="M0 0 C2.5625 0.1875 2.5625 0.1875 4.5625 2.1875 C4.6875 4.8125 4.6875 4.8125 4.5625 7.1875 C1.9225 7.1875 -0.7175 7.1875 -3.4375 7.1875 C-3.1075 6.5275 -2.7775 5.8675 -2.4375 5.1875 C-1.1175 5.1875 0.2025 5.1875 1.5625 5.1875 C0.30708443 2.67666886 -0.93813488 2.31624554 -3.4375 1.1875 C-2.4375 0.1875 -2.4375 0.1875 0 0 Z " fill="#F6F6F6" transform="translate(99.4375,72.8125)"/>
<path d="M0 0 C2.125 0.375 2.125 0.375 4 1 C4 2.65 4 4.3 4 6 C2.35 6.33 0.7 6.66 -1 7 C-1.625 4.625 -1.625 4.625 -2 2 C-1.34 1.34 -0.68 0.68 0 0 Z " fill="#1B1B1B" transform="translate(83,75)"/>
<path d="M0 0 C0.66 0 1.32 0 2 0 C2 0.66 2 1.32 2 2 C2.66 2.33 3.32 2.66 4 3 C3.67 5.97 3.34 8.94 3 12 C2.01 12 1.02 12 0 12 C0 8.04 0 4.08 0 0 Z " fill="#FCFCFC" transform="translate(65,73)"/>
<path d="M0 0 C3.25696479 0.41755959 4.63443291 0.63443291 7 3 C7 4.32 7 5.64 7 7 C4.36 7 1.72 7 -1 7 C-1 6.67 -1 6.34 -1 6 C0.65 6 2.3 6 4 6 C2.16666667 2.83333333 2.16666667 2.83333333 -1 1 C-0.67 0.67 -0.34 0.34 0 0 Z " fill="#F6F6F6" transform="translate(77,96)"/>
<path d="M0 0 C0.33 0 0.66 0 1 0 C1 1.98 1 3.96 1 6 C-1.97 6 -4.94 6 -8 6 C-8.33 5.01 -8.66 4.02 -9 3 C-6.03 3 -3.06 3 0 3 C0 2.01 0 1.02 0 0 Z " fill="#2F2F2F" transform="translate(104,77)"/>
<path d="M0 0 C1.98 0 3.96 0 6 0 C6.33 0.66 6.66 1.32 7 2 C7.99 2.66 8.98 3.32 10 4 C7.03 4 4.06 4 1 4 C0.67 2.68 0.34 1.36 0 0 Z " fill="#C2C2C2" transform="translate(45,73)"/>
<path d="M0 0 C0.66 0.33 1.32 0.66 2 1 C2 2.32 2 3.64 2 5 C2.66 5.33 3.32 5.66 4 6 C2.35 6 0.7 6 -1 6 C-1.625 4.125 -1.625 4.125 -2 2 C-1.34 1.34 -0.68 0.68 0 0 Z " fill="#E7E7E7" transform="translate(53,80)"/>
<path d="M0 0 C1.32 0 2.64 0 4 0 C4 0.66 4 1.32 4 2 C4.99 2.33 5.98 2.66 7 3 C5.35 3.33 3.7 3.66 2 4 C1.34 2.68 0.68 1.36 0 0 Z " fill="#D1D1D1" transform="translate(78,86)"/>
<path d="M0 0 C1.32 0 2.64 0 4 0 C3.67 1.32 3.34 2.64 3 4 C1.68 3.67 0.36 3.34 -1 3 C-0.67 2.01 -0.34 1.02 0 0 Z " fill="#292929" transform="translate(55,80)"/>
</svg>
