<?xml version="1.0" encoding="UTF-8"?>
<svg version="1.1" xmlns="http://www.w3.org/2000/svg" width="128" height="128">
<path d="M0 0 C1.03125 0.47308594 2.0625 0.94617188 3.125 1.43359375 C18.9313144 9.68663031 29.7426496 23.88583197 35.1730957 40.66625977 C36.59903615 46.41506899 36.61741725 52.04197118 36.5625 57.9375 C36.59827148 59.69610352 36.59827148 59.69610352 36.63476562 61.49023438 C36.60817299 77.54332153 29.24054628 91.03623032 18.1875 102.3125 C5.29651584 114.94766308 -10.26461254 120.29215127 -28.03027344 120.31689453 C-36.06680838 120.2154674 -42.60556281 119.33841679 -50 116 C-51.42119141 115.36384766 -51.42119141 115.36384766 -52.87109375 114.71484375 C-59.91715425 111.20647243 -65.44528083 106.52694558 -71 101 C-71.7115625 100.32324219 -72.423125 99.64648438 -73.15625 98.94921875 C-84.03867027 87.83659344 -88.35846996 73.04957419 -88.375 57.875 C-88.39949219 56.71484375 -88.42398438 55.5546875 -88.44921875 54.359375 C-88.50406696 38.01460876 -81.63198371 24.2966678 -70.375 12.6875 C-51.72349214 -5.60423861 -23.85939933 -11.00120889 0 0 Z " fill="#00C9FD" transform="translate(90,7)"/>
<path d="M0 0 C5.34467191 3.18278215 9.00650667 6.41234114 10.65234375 12.5859375 C12.30162505 20.41212484 13.2117561 28.38248835 14.2734375 36.3046875 C14.60505403 38.76082041 14.93777351 41.21679469 15.27220154 43.67254639 C15.47881564 45.19154762 15.68371194 46.71078384 15.88661194 48.23028564 C16.27506007 51.10015709 16.68845256 53.94420083 17.26611328 56.78271484 C18.02250652 60.64604934 17.97785972 64.50392129 18.0234375 68.4296875 C18.06694336 69.6671875 18.06694336 69.6671875 18.11132812 70.9296875 C18.17284422 76.89201637 16.90964326 80.05670975 13.7109375 85.0546875 C14.31855703 87.18721487 14.31855703 87.18721487 15.7109375 89.0546875 C16.0409375 91.0346875 16.3709375 93.0146875 16.7109375 95.0546875 C1.2009375 95.0546875 -14.3090625 95.0546875 -30.2890625 95.0546875 C-29.2890625 89.0546875 -29.2890625 89.0546875 -28.10864258 86.90429688 C-27.83818115 86.29392578 -27.56771973 85.68355469 -27.2890625 85.0546875 C-27.9325374 83.20848521 -27.9325374 83.20848521 -29.17578125 81.4609375 C-31.95179612 76.43689718 -31.47314063 72.1423248 -31.1015625 66.5546875 C-30.58404411 58.28032929 -30.58404411 58.28032929 -34.3515625 51.2421875 C-35.6412577 50.15211925 -36.95472882 49.0896349 -38.2890625 48.0546875 C-39.60838107 46.62132174 -40.90077746 45.16267428 -42.1640625 43.6796875 C-42.73898438 43.03257813 -43.31390625 42.38546875 -43.90625 41.71875 C-46.42763681 38.68453875 -46.67058704 36.09241095 -46.65625 32.1640625 C-46.01761537 28.49531038 -43.87363625 26.63926125 -41.2890625 24.0546875 C-37.3370107 24.63641475 -35.06811197 26.60626491 -32.0390625 29.1171875 C-31.14703125 29.85066406 -30.255 30.58414063 -29.3359375 31.33984375 C-28.66046875 31.90574219 -27.985 32.47164062 -27.2890625 33.0546875 C-27.25167969 32.32765625 -27.21429688 31.600625 -27.17578125 30.8515625 C-26.47895454 20.19421283 -25.68273537 10.61307886 -18.10546875 2.578125 C-12.90107511 -1.78685031 -6.31323403 -2.60717173 0 0 Z " fill="#020504" transform="translate(75.2890625,16.9453125)"/>
<path d="M0 0 C4.76539587 3.80569809 7.75300574 9.07677726 9 15 C9.96612191 23.93662771 8.80340617 32.77179831 3.25 40.0625 C0.89134793 42.53820677 -0.14116534 43.04457853 -3.5625 44.125 C-7.64575687 43.97651793 -8.98740765 43.77475611 -12 41 C-17.40099416 32.05937124 -18.87933948 24.41773025 -18 14 C-16.42159574 8.12387544 -13.6824748 3.94313667 -9 0 C-5.69035313 -1.65482343 -3.5180408 -0.93814421 0 0 Z " fill="#F8F8F8" transform="translate(73,57)"/>
<path d="M0 0 C2.9375 1.625 2.9375 1.625 5 4 C5.33 5.98 5.66 7.96 6 10 C-0.6 10 -7.2 10 -14 10 C-14 5 -14 5 -11.5 2.1875 C-7.59934489 -0.72646458 -4.76363359 -0.68051908 0 0 Z " fill="#F97903" transform="translate(86,102)"/>
<path d="M0 0 C2.9375 1.625 2.9375 1.625 5 4 C5.33 5.98 5.66 7.96 6 10 C-0.6 10 -7.2 10 -14 10 C-13 4 -13 4 -10.9375 1.625 C-7.13489707 -0.47856758 -4.2534768 -0.84210248 0 0 Z " fill="#FA7901" transform="translate(59,102)"/>
<path d="M0 0 C0 0.66 0 1.32 0 2 C-3.91351177 5.3917102 -7.66784672 5.35286145 -12.59765625 5.3984375 C-15.48047015 4.92031227 -16.89167617 3.99633434 -19 2 C-19 1.34 -19 0.68 -19 0 C-11.95887436 -2.68233358 -6.99070847 -2.23702671 0 0 Z " fill="#EC7901" transform="translate(78,40)"/>
<path d="M0 0 C1.98 0.495 1.98 0.495 4 1 C3.67 2.32 3.34 3.64 3 5 C1.68 4.67 0.36 4.34 -1 4 C-0.67 2.68 -0.34 1.36 0 0 Z " fill="#F2F3F2" transform="translate(73,30)"/>
<path d="M0 0 C1.98 0.495 1.98 0.495 4 1 C3.67 2.32 3.34 3.64 3 5 C1.68 4.67 0.36 4.34 -1 4 C-0.67 2.68 -0.34 1.36 0 0 Z " fill="#F2F2F2" transform="translate(61,30)"/>
<path d="M0 0 C2.375 0.25 2.375 0.25 5 1 C6.3125 3.0625 6.3125 3.0625 7 5 C4.03824877 4.38722388 2.61941217 3.74627478 0 2 C0 1.34 0 0.68 0 0 Z " fill="#D47403" transform="translate(59,40)"/>
</svg>
